M48
; DRILL file {KiCad (5.1.9)-1} date 04/12/21 01:02:38
; FORMAT={-:-/ absolute / inch / decimal}
; #@! TF.CreationDate,2021-04-12T01:02:38-04:00
; #@! TF.GenerationSoftware,Kicad,Pcbnew,(5.1.9)-1
; #@! TF.FileFunction,Plated,1,2,PTH
FMAT,2
INCH
T1C0.0157
T2C0.0276
T3C0.0579
%
G90
G05
T1
X4.49Y-1.645
X4.525Y-1.49
X4.75Y-1.2812
X4.76Y-1.465
X4.9062Y-1.2812
X4.9062Y-1.4062
X5.0493Y-1.6607
X5.0772Y-1.6328
X5.105Y-1.605
X5.135Y-1.575
X5.1628Y-1.5472
T3
X1.6Y-2.025
X1.6Y-2.775
X1.6Y-3.525
X1.6Y-4.275
X1.6Y-5.025
X1.6516Y-1.9675
X1.6516Y-2.7175
X1.6516Y-3.4675
X1.6516Y-4.2175
X1.6516Y-4.9675
X1.8484Y-1.9478
X1.8484Y-2.6978
X1.8484Y-3.4478
X1.8484Y-4.1978
X1.8484Y-4.9478
X1.85Y-1.925
X1.85Y-2.675
X1.85Y-3.425
X1.85Y-4.175
X1.85Y-4.925
X2.35Y-2.025
X2.35Y-2.775
X2.35Y-3.525
X2.35Y-4.275
X2.35Y-5.025
X2.4016Y-1.9675
X2.4016Y-2.7175
X2.4016Y-3.4675
X2.4016Y-4.2175
X2.4016Y-4.9675
X2.5984Y-1.9478
X2.5984Y-2.6978
X2.5984Y-3.4478
X2.5984Y-4.1978
X2.5984Y-4.9478
X2.6Y-1.925
X2.6Y-2.675
X2.6Y-3.425
X2.6Y-4.175
X2.6Y-4.925
X3.1Y-2.025
X3.1Y-2.775
X3.1Y-3.525
X3.1Y-4.275
X3.1Y-5.025
X3.1516Y-1.9675
X3.1516Y-2.7175
X3.1516Y-3.4675
X3.1516Y-4.2175
X3.1516Y-4.9675
X3.3484Y-1.9478
X3.3484Y-2.6978
X3.3484Y-3.4478
X3.3484Y-4.1978
X3.3484Y-4.9478
X3.35Y-1.925
X3.35Y-2.675
X3.35Y-3.425
X3.35Y-4.175
X3.35Y-4.925
X3.85Y-2.025
X3.85Y-2.775
X3.85Y-3.525
X3.85Y-4.275
X3.85Y-5.025
X3.9016Y-1.9675
X3.9016Y-2.7175
X3.9016Y-3.4675
X3.9016Y-4.2175
X3.9016Y-4.9675
X4.0984Y-1.9478
X4.0984Y-2.6978
X4.0984Y-3.4478
X4.0984Y-4.1978
X4.0984Y-4.9478
X4.1Y-1.925
X4.1Y-2.675
X4.1Y-3.425
X4.1Y-4.175
X4.1Y-4.925
T2
G00X2.9188Y-0.8514
M15
G01X2.9188Y-0.8986
M16
G05
G00X2.9188Y-1.0285
M15
G01X2.9188Y-1.0758
M16
G05
G00X3.2062Y-0.8514
M15
G01X3.2062Y-0.8986
M16
G05
G00X3.2062Y-1.0285
M15
G01X3.2062Y-1.0758
M16
G05
T0
M30
