%TF.GenerationSoftware,KiCad,Pcbnew,(5.1.9)-1*%
%TF.CreationDate,2021-04-12T01:02:27-04:00*%
%TF.ProjectId,Genesis Numpad,47656e65-7369-4732-904e-756d7061642e,rev?*%
%TF.SameCoordinates,Original*%
%TF.FileFunction,Legend,Bot*%
%TF.FilePolarity,Positive*%
%FSLAX46Y46*%
G04 Gerber Fmt 4.6, Leading zero omitted, Abs format (unit mm)*
G04 Created by KiCad (PCBNEW (5.1.9)-1) date 2021-04-12 01:02:27*
%MOMM*%
%LPD*%
G01*
G04 APERTURE LIST*
%ADD10C,0.120000*%
%ADD11C,0.150000*%
G04 APERTURE END LIST*
D10*
%TO.C,Y1*%
X115899129Y-23440337D02*
X118232582Y-25773790D01*
X118232582Y-25773790D02*
X115404155Y-28602217D01*
D11*
%TO.C,USB1*%
X73937500Y-27675000D02*
X81637500Y-27675000D01*
X81637500Y-22225000D02*
X81637500Y-27675000D01*
X73937500Y-22225000D02*
X73937500Y-27675000D01*
%TO.C,U1*%
X123031250Y-41449805D02*
X122624664Y-41043219D01*
X130349805Y-34131250D02*
X129872508Y-33653953D01*
X123031250Y-26812695D02*
X123508547Y-27289992D01*
X115712695Y-34131250D02*
X116189992Y-34608547D01*
X123031250Y-41449805D02*
X123508547Y-40972508D01*
X115712695Y-34131250D02*
X116189992Y-33653953D01*
X123031250Y-26812695D02*
X122553953Y-27289992D01*
X130349805Y-34131250D02*
X129872508Y-34608547D01*
X122624664Y-41043219D02*
X121723102Y-41944780D01*
%TO.C,SW1*%
X92694000Y-27559000D02*
G75*
G03*
X92694000Y-27559000I-1000000J0D01*
G01*
X94294000Y-30159000D02*
X94294000Y-24959000D01*
X89094000Y-30159000D02*
X94294000Y-30159000D01*
X89094000Y-24959000D02*
X89094000Y-30159000D01*
X94294000Y-24959000D02*
X89094000Y-24959000D01*
D10*
%TO.C,R4*%
X133649282Y-32787835D02*
X133328165Y-32466718D01*
X132609835Y-33827282D02*
X132288718Y-33506165D01*
%TO.C,R3*%
X100611000Y-28220936D02*
X100611000Y-28675064D01*
X102081000Y-28220936D02*
X102081000Y-28675064D01*
%TO.C,R2*%
X105002064Y-38158750D02*
X104547936Y-38158750D01*
X105002064Y-39628750D02*
X104547936Y-39628750D01*
%TO.C,R1*%
X105002064Y-40540000D02*
X104547936Y-40540000D01*
X105002064Y-42010000D02*
X104547936Y-42010000D01*
%TO.C,F1*%
X101408314Y-43540000D02*
X100204186Y-43540000D01*
X101408314Y-45360000D02*
X100204186Y-45360000D01*
%TO.C,C7*%
X112591457Y-37130010D02*
X112221990Y-36760543D01*
X111552010Y-38169457D02*
X111182543Y-37799990D01*
%TO.C,C6*%
X112464457Y-42464010D02*
X112094990Y-42094543D01*
X111425010Y-43503457D02*
X111055543Y-43133990D01*
%TO.C,C5*%
X120199543Y-43641990D02*
X120569010Y-44011457D01*
X121238990Y-42602543D02*
X121608457Y-42972010D01*
%TO.C,C4*%
X112071543Y-29163990D02*
X112441010Y-29533457D01*
X113110990Y-28124543D02*
X113480457Y-28494010D01*
%TO.C,C3*%
X119068457Y-22906010D02*
X118698990Y-22536543D01*
X118029010Y-23945457D02*
X117659543Y-23575990D01*
%TO.C,C2*%
X132391543Y-36529990D02*
X132761010Y-36899457D01*
X133430990Y-35490543D02*
X133800457Y-35860010D01*
%TO.C,C1*%
X125926457Y-24557010D02*
X125556990Y-24187543D01*
X124887010Y-25596457D02*
X124517543Y-25226990D01*
%TO.C,Y1*%
D11*
X114239111Y-23935311D02*
X114575829Y-24272029D01*
X114104424Y-23329220D02*
X114239111Y-23935311D01*
X113633020Y-23800624D01*
X113734035Y-25113822D02*
X114138096Y-24709761D01*
X113936065Y-24911792D02*
X113228959Y-24204685D01*
X113397317Y-24238357D01*
X113532004Y-24238357D01*
X113633020Y-24204685D01*
%TO.C,USB1*%
X79525595Y-23709380D02*
X79525595Y-24518904D01*
X79477976Y-24614142D01*
X79430357Y-24661761D01*
X79335119Y-24709380D01*
X79144642Y-24709380D01*
X79049404Y-24661761D01*
X79001785Y-24614142D01*
X78954166Y-24518904D01*
X78954166Y-23709380D01*
X78525595Y-24661761D02*
X78382738Y-24709380D01*
X78144642Y-24709380D01*
X78049404Y-24661761D01*
X78001785Y-24614142D01*
X77954166Y-24518904D01*
X77954166Y-24423666D01*
X78001785Y-24328428D01*
X78049404Y-24280809D01*
X78144642Y-24233190D01*
X78335119Y-24185571D01*
X78430357Y-24137952D01*
X78477976Y-24090333D01*
X78525595Y-23995095D01*
X78525595Y-23899857D01*
X78477976Y-23804619D01*
X78430357Y-23757000D01*
X78335119Y-23709380D01*
X78097023Y-23709380D01*
X77954166Y-23757000D01*
X77192261Y-24185571D02*
X77049404Y-24233190D01*
X77001785Y-24280809D01*
X76954166Y-24376047D01*
X76954166Y-24518904D01*
X77001785Y-24614142D01*
X77049404Y-24661761D01*
X77144642Y-24709380D01*
X77525595Y-24709380D01*
X77525595Y-23709380D01*
X77192261Y-23709380D01*
X77097023Y-23757000D01*
X77049404Y-23804619D01*
X77001785Y-23899857D01*
X77001785Y-23995095D01*
X77049404Y-24090333D01*
X77097023Y-24137952D01*
X77192261Y-24185571D01*
X77525595Y-24185571D01*
X76001785Y-24709380D02*
X76573214Y-24709380D01*
X76287500Y-24709380D02*
X76287500Y-23709380D01*
X76382738Y-23852238D01*
X76477976Y-23947476D01*
X76573214Y-23995095D01*
%TO.C,U1*%
X128450718Y-38473222D02*
X129023138Y-39045642D01*
X129056810Y-39146657D01*
X129056810Y-39214001D01*
X129023138Y-39315016D01*
X128888451Y-39449703D01*
X128787436Y-39483375D01*
X128720092Y-39483375D01*
X128619077Y-39449703D01*
X128046657Y-38877283D01*
X128046657Y-40291497D02*
X128450718Y-39887436D01*
X128248688Y-40089466D02*
X127541581Y-39382360D01*
X127709940Y-39416031D01*
X127844627Y-39416031D01*
X127945642Y-39382360D01*
%TO.C,SW1*%
X93027333Y-32027761D02*
X92884476Y-32075380D01*
X92646380Y-32075380D01*
X92551142Y-32027761D01*
X92503523Y-31980142D01*
X92455904Y-31884904D01*
X92455904Y-31789666D01*
X92503523Y-31694428D01*
X92551142Y-31646809D01*
X92646380Y-31599190D01*
X92836857Y-31551571D01*
X92932095Y-31503952D01*
X92979714Y-31456333D01*
X93027333Y-31361095D01*
X93027333Y-31265857D01*
X92979714Y-31170619D01*
X92932095Y-31123000D01*
X92836857Y-31075380D01*
X92598761Y-31075380D01*
X92455904Y-31123000D01*
X92122571Y-31075380D02*
X91884476Y-32075380D01*
X91694000Y-31361095D01*
X91503523Y-32075380D01*
X91265428Y-31075380D01*
X90360666Y-32075380D02*
X90932095Y-32075380D01*
X90646380Y-32075380D02*
X90646380Y-31075380D01*
X90741619Y-31218238D01*
X90836857Y-31313476D01*
X90932095Y-31361095D01*
%TO.C,R4*%
X133933695Y-32418006D02*
X134506115Y-32316991D01*
X134337756Y-32822067D02*
X135044863Y-32114961D01*
X134775489Y-31845586D01*
X134674474Y-31811915D01*
X134607130Y-31811915D01*
X134506115Y-31845586D01*
X134405100Y-31946602D01*
X134371428Y-32047617D01*
X134371428Y-32114961D01*
X134405100Y-32215976D01*
X134674474Y-32485350D01*
X133799008Y-31340510D02*
X133327603Y-31811915D01*
X134236741Y-31239495D02*
X133900023Y-31912930D01*
X133462290Y-31475197D01*
%TO.C,R3*%
X100148380Y-28281333D02*
X99672190Y-27948000D01*
X100148380Y-27709904D02*
X99148380Y-27709904D01*
X99148380Y-28090857D01*
X99196000Y-28186095D01*
X99243619Y-28233714D01*
X99338857Y-28281333D01*
X99481714Y-28281333D01*
X99576952Y-28233714D01*
X99624571Y-28186095D01*
X99672190Y-28090857D01*
X99672190Y-27709904D01*
X99148380Y-28614666D02*
X99148380Y-29233714D01*
X99529333Y-28900380D01*
X99529333Y-29043238D01*
X99576952Y-29138476D01*
X99624571Y-29186095D01*
X99719809Y-29233714D01*
X99957904Y-29233714D01*
X100053142Y-29186095D01*
X100100761Y-29138476D01*
X100148380Y-29043238D01*
X100148380Y-28757523D01*
X100100761Y-28662285D01*
X100053142Y-28614666D01*
%TO.C,R2*%
X104941666Y-37696130D02*
X105275000Y-37219940D01*
X105513095Y-37696130D02*
X105513095Y-36696130D01*
X105132142Y-36696130D01*
X105036904Y-36743750D01*
X104989285Y-36791369D01*
X104941666Y-36886607D01*
X104941666Y-37029464D01*
X104989285Y-37124702D01*
X105036904Y-37172321D01*
X105132142Y-37219940D01*
X105513095Y-37219940D01*
X104560714Y-36791369D02*
X104513095Y-36743750D01*
X104417857Y-36696130D01*
X104179761Y-36696130D01*
X104084523Y-36743750D01*
X104036904Y-36791369D01*
X103989285Y-36886607D01*
X103989285Y-36981845D01*
X104036904Y-37124702D01*
X104608333Y-37696130D01*
X103989285Y-37696130D01*
%TO.C,R1*%
X104941666Y-40077380D02*
X105275000Y-39601190D01*
X105513095Y-40077380D02*
X105513095Y-39077380D01*
X105132142Y-39077380D01*
X105036904Y-39125000D01*
X104989285Y-39172619D01*
X104941666Y-39267857D01*
X104941666Y-39410714D01*
X104989285Y-39505952D01*
X105036904Y-39553571D01*
X105132142Y-39601190D01*
X105513095Y-39601190D01*
X103989285Y-40077380D02*
X104560714Y-40077380D01*
X104275000Y-40077380D02*
X104275000Y-39077380D01*
X104370238Y-39220238D01*
X104465476Y-39315476D01*
X104560714Y-39363095D01*
%TO.C,F1*%
X101139583Y-42558571D02*
X101472916Y-42558571D01*
X101472916Y-43082380D02*
X101472916Y-42082380D01*
X100996726Y-42082380D01*
X100091964Y-43082380D02*
X100663392Y-43082380D01*
X100377678Y-43082380D02*
X100377678Y-42082380D01*
X100472916Y-42225238D01*
X100568154Y-42320476D01*
X100663392Y-42368095D01*
%TO.C,C7*%
X112940251Y-36647450D02*
X112940251Y-36714793D01*
X113007595Y-36849480D01*
X113074939Y-36916824D01*
X113209626Y-36984167D01*
X113344313Y-36984167D01*
X113445328Y-36950496D01*
X113613687Y-36849480D01*
X113714702Y-36748465D01*
X113815717Y-36580106D01*
X113849389Y-36479091D01*
X113849389Y-36344404D01*
X113782045Y-36209717D01*
X113714702Y-36142373D01*
X113580015Y-36075030D01*
X113512671Y-36075030D01*
X113344313Y-35771984D02*
X112872908Y-35300580D01*
X112468847Y-36310732D01*
%TO.C,C6*%
X112813251Y-41981450D02*
X112813251Y-42048793D01*
X112880595Y-42183480D01*
X112947939Y-42250824D01*
X113082626Y-42318167D01*
X113217313Y-42318167D01*
X113318328Y-42284496D01*
X113486687Y-42183480D01*
X113587702Y-42082465D01*
X113688717Y-41914106D01*
X113722389Y-41813091D01*
X113722389Y-41678404D01*
X113655045Y-41543717D01*
X113587702Y-41476373D01*
X113453015Y-41409030D01*
X113385671Y-41409030D01*
X112846923Y-40735595D02*
X112981610Y-40870282D01*
X113015282Y-40971297D01*
X113015282Y-41038641D01*
X112981610Y-41206999D01*
X112880595Y-41375358D01*
X112611221Y-41644732D01*
X112510206Y-41678404D01*
X112442862Y-41678404D01*
X112341847Y-41644732D01*
X112207160Y-41510045D01*
X112173488Y-41409030D01*
X112173488Y-41341686D01*
X112207160Y-41240671D01*
X112375519Y-41072312D01*
X112476534Y-41038641D01*
X112543877Y-41038641D01*
X112644893Y-41072312D01*
X112779580Y-41206999D01*
X112813251Y-41308015D01*
X112813251Y-41375358D01*
X112779580Y-41476373D01*
%TO.C,C5*%
X119581373Y-44865328D02*
X119581373Y-44932671D01*
X119648717Y-45067358D01*
X119716061Y-45134702D01*
X119850748Y-45202045D01*
X119985435Y-45202045D01*
X120086450Y-45168374D01*
X120254809Y-45067358D01*
X120355824Y-44966343D01*
X120456839Y-44797984D01*
X120490511Y-44696969D01*
X120490511Y-44562282D01*
X120423167Y-44427595D01*
X120355824Y-44360251D01*
X120221137Y-44292908D01*
X120153793Y-44292908D01*
X119581373Y-43585801D02*
X119918091Y-43922519D01*
X119615045Y-44292908D01*
X119615045Y-44225564D01*
X119581373Y-44124549D01*
X119413015Y-43956190D01*
X119311999Y-43922519D01*
X119244656Y-43922519D01*
X119143641Y-43956190D01*
X118975282Y-44124549D01*
X118941610Y-44225564D01*
X118941610Y-44292908D01*
X118975282Y-44393923D01*
X119143641Y-44562282D01*
X119244656Y-44595954D01*
X119311999Y-44595954D01*
%TO.C,C4*%
X111453373Y-30387328D02*
X111453373Y-30454671D01*
X111520717Y-30589358D01*
X111588061Y-30656702D01*
X111722748Y-30724045D01*
X111857435Y-30724045D01*
X111958450Y-30690374D01*
X112126809Y-30589358D01*
X112227824Y-30488343D01*
X112328839Y-30319984D01*
X112362511Y-30218969D01*
X112362511Y-30084282D01*
X112295167Y-29949595D01*
X112227824Y-29882251D01*
X112093137Y-29814908D01*
X112025793Y-29814908D01*
X111251343Y-29377175D02*
X110779938Y-29848580D01*
X111689076Y-29276160D02*
X111352358Y-29949595D01*
X110914625Y-29511862D01*
%TO.C,C3*%
X119417251Y-22423450D02*
X119417251Y-22490793D01*
X119484595Y-22625480D01*
X119551939Y-22692824D01*
X119686626Y-22760167D01*
X119821313Y-22760167D01*
X119922328Y-22726496D01*
X120090687Y-22625480D01*
X120191702Y-22524465D01*
X120292717Y-22356106D01*
X120326389Y-22255091D01*
X120326389Y-22120404D01*
X120259045Y-21985717D01*
X120191702Y-21918373D01*
X120057015Y-21851030D01*
X119989671Y-21851030D01*
X119821313Y-21547984D02*
X119383580Y-21110251D01*
X119349908Y-21615328D01*
X119248893Y-21514312D01*
X119147877Y-21480641D01*
X119080534Y-21480641D01*
X118979519Y-21514312D01*
X118811160Y-21682671D01*
X118777488Y-21783686D01*
X118777488Y-21851030D01*
X118811160Y-21952045D01*
X119013190Y-22154076D01*
X119114206Y-22187748D01*
X119181549Y-22187748D01*
%TO.C,C2*%
X131773373Y-37753328D02*
X131773373Y-37820671D01*
X131840717Y-37955358D01*
X131908061Y-38022702D01*
X132042748Y-38090045D01*
X132177435Y-38090045D01*
X132278450Y-38056374D01*
X132446809Y-37955358D01*
X132547824Y-37854343D01*
X132648839Y-37685984D01*
X132682511Y-37584969D01*
X132682511Y-37450282D01*
X132615167Y-37315595D01*
X132547824Y-37248251D01*
X132413137Y-37180908D01*
X132345793Y-37180908D01*
X132076419Y-36911534D02*
X132076419Y-36844190D01*
X132042748Y-36743175D01*
X131874389Y-36574816D01*
X131773373Y-36541145D01*
X131706030Y-36541145D01*
X131605015Y-36574816D01*
X131537671Y-36642160D01*
X131470328Y-36776847D01*
X131470328Y-37584969D01*
X131032595Y-37147236D01*
%TO.C,C1*%
X126275251Y-24074450D02*
X126275251Y-24141793D01*
X126342595Y-24276480D01*
X126409939Y-24343824D01*
X126544626Y-24411167D01*
X126679313Y-24411167D01*
X126780328Y-24377496D01*
X126948687Y-24276480D01*
X127049702Y-24175465D01*
X127150717Y-24007106D01*
X127184389Y-23906091D01*
X127184389Y-23771404D01*
X127117045Y-23636717D01*
X127049702Y-23569373D01*
X126915015Y-23502030D01*
X126847671Y-23502030D01*
X125534473Y-23468358D02*
X125938534Y-23872419D01*
X125736503Y-23670389D02*
X126443610Y-22963282D01*
X126409939Y-23131641D01*
X126409939Y-23266328D01*
X126443610Y-23367343D01*
%TD*%
M02*
