M48
; DRILL file {KiCad (5.1.9)-1} date 04/12/21 01:02:38
; FORMAT={-:-/ absolute / inch / decimal}
; #@! TF.CreationDate,2021-04-12T01:02:38-04:00
; #@! TF.GenerationSoftware,Kicad,Pcbnew,(5.1.9)-1
; #@! TF.FileFunction,NonPlated,1,2,NPTH
FMAT,2
INCH
T1C0.0689
T2C0.1570
%
G90
G05
T1
X1.55Y-2.125
X1.55Y-2.875
X1.55Y-3.625
X1.55Y-4.375
X1.55Y-5.125
X1.95Y-2.125
X1.95Y-2.875
X1.95Y-3.625
X1.95Y-4.375
X1.95Y-5.125
X2.3Y-2.125
X2.3Y-2.875
X2.3Y-3.625
X2.3Y-4.375
X2.3Y-5.125
X2.7Y-2.125
X2.7Y-2.875
X2.7Y-3.625
X2.7Y-4.375
X2.7Y-5.125
X3.05Y-2.125
X3.05Y-2.875
X3.05Y-3.625
X3.05Y-4.375
X3.05Y-5.125
X3.45Y-2.125
X3.45Y-2.875
X3.45Y-3.625
X3.45Y-4.375
X3.45Y-5.125
X3.8Y-2.125
X3.8Y-2.875
X3.8Y-3.625
X3.8Y-4.375
X3.8Y-5.125
X4.2Y-2.125
X4.2Y-2.875
X4.2Y-3.625
X4.2Y-4.375
X4.2Y-5.125
T2
X1.75Y-2.125
X1.75Y-2.875
X1.75Y-3.625
X1.75Y-4.375
X1.75Y-5.125
X2.5Y-2.125
X2.5Y-2.875
X2.5Y-3.625
X2.5Y-4.375
X2.5Y-5.125
X3.25Y-2.125
X3.25Y-2.875
X3.25Y-3.625
X3.25Y-4.375
X3.25Y-5.125
X4.0Y-2.125
X4.0Y-2.875
X4.0Y-3.625
X4.0Y-4.375
X4.0Y-5.125
T0
M30
