%TF.GenerationSoftware,KiCad,Pcbnew,(5.1.9)-1*%
%TF.CreationDate,2021-04-12T01:02:27-04:00*%
%TF.ProjectId,Genesis Numpad,47656e65-7369-4732-904e-756d7061642e,rev?*%
%TF.SameCoordinates,Original*%
%TF.FileFunction,Soldermask,Top*%
%TF.FilePolarity,Negative*%
%FSLAX46Y46*%
G04 Gerber Fmt 4.6, Leading zero omitted, Abs format (unit mm)*
G04 Created by KiCad (PCBNEW (5.1.9)-1) date 2021-04-12 01:02:27*
%MOMM*%
%LPD*%
G01*
G04 APERTURE LIST*
%ADD10O,1.700000X2.700000*%
%ADD11C,1.750000*%
%ADD12C,3.987800*%
%ADD13R,0.900000X1.200000*%
G04 APERTURE END LIST*
D10*
%TO.C,USB1*%
X74137500Y-22225000D03*
X81437500Y-22225000D03*
X81437500Y-26725000D03*
X74137500Y-26725000D03*
%TD*%
D11*
%TO.C,MX20*%
X106680000Y-130175000D03*
X96520000Y-130175000D03*
D12*
X101600000Y-130175000D03*
%TD*%
D11*
%TO.C,MX19*%
X106680000Y-111125000D03*
X96520000Y-111125000D03*
D12*
X101600000Y-111125000D03*
%TD*%
D11*
%TO.C,MX18*%
X106680000Y-92075000D03*
X96520000Y-92075000D03*
D12*
X101600000Y-92075000D03*
%TD*%
D11*
%TO.C,MX17*%
X106680000Y-73025000D03*
X96520000Y-73025000D03*
D12*
X101600000Y-73025000D03*
%TD*%
D11*
%TO.C,MX16*%
X106680000Y-53975000D03*
X96520000Y-53975000D03*
D12*
X101600000Y-53975000D03*
%TD*%
D11*
%TO.C,MX15*%
X87630000Y-130175000D03*
X77470000Y-130175000D03*
D12*
X82550000Y-130175000D03*
%TD*%
D11*
%TO.C,MX14*%
X87630000Y-111125000D03*
X77470000Y-111125000D03*
D12*
X82550000Y-111125000D03*
%TD*%
D11*
%TO.C,MX13*%
X87630000Y-92075000D03*
X77470000Y-92075000D03*
D12*
X82550000Y-92075000D03*
%TD*%
D11*
%TO.C,MX12*%
X87630000Y-73025000D03*
X77470000Y-73025000D03*
D12*
X82550000Y-73025000D03*
%TD*%
D11*
%TO.C,MX11*%
X87630000Y-53975000D03*
X77470000Y-53975000D03*
D12*
X82550000Y-53975000D03*
%TD*%
D11*
%TO.C,MX10*%
X68580000Y-130175000D03*
X58420000Y-130175000D03*
D12*
X63500000Y-130175000D03*
%TD*%
D11*
%TO.C,MX9*%
X68580000Y-111125000D03*
X58420000Y-111125000D03*
D12*
X63500000Y-111125000D03*
%TD*%
D11*
%TO.C,MX8*%
X68580000Y-92075000D03*
X58420000Y-92075000D03*
D12*
X63500000Y-92075000D03*
%TD*%
D11*
%TO.C,MX7*%
X68580000Y-73025000D03*
X58420000Y-73025000D03*
D12*
X63500000Y-73025000D03*
%TD*%
D11*
%TO.C,MX6*%
X68580000Y-53975000D03*
X58420000Y-53975000D03*
D12*
X63500000Y-53975000D03*
%TD*%
D11*
%TO.C,MX5*%
X49530000Y-130175000D03*
X39370000Y-130175000D03*
D12*
X44450000Y-130175000D03*
%TD*%
D11*
%TO.C,MX4*%
X49530000Y-111125000D03*
X39370000Y-111125000D03*
D12*
X44450000Y-111125000D03*
%TD*%
D11*
%TO.C,MX3*%
X49530000Y-92075000D03*
X39370000Y-92075000D03*
D12*
X44450000Y-92075000D03*
%TD*%
D11*
%TO.C,MX2*%
X49530000Y-73025000D03*
X39370000Y-73025000D03*
D12*
X44450000Y-73025000D03*
%TD*%
D11*
%TO.C,MX1*%
X49530000Y-53975000D03*
X39370000Y-53975000D03*
D12*
X44450000Y-53975000D03*
%TD*%
D13*
%TO.C,D20*%
X112650000Y-129381250D03*
X115950000Y-129381250D03*
%TD*%
%TO.C,D19*%
X112650000Y-110331250D03*
X115950000Y-110331250D03*
%TD*%
%TO.C,D18*%
X112650000Y-91281250D03*
X115950000Y-91281250D03*
%TD*%
%TO.C,D17*%
X112650000Y-72231250D03*
X115950000Y-72231250D03*
%TD*%
%TO.C,D16*%
X112650000Y-53181250D03*
X115950000Y-53181250D03*
%TD*%
%TO.C,D15*%
X115031250Y-131762500D03*
X118331250Y-131762500D03*
%TD*%
%TO.C,D14*%
X115031250Y-112712500D03*
X118331250Y-112712500D03*
%TD*%
%TO.C,D13*%
X115031250Y-93662500D03*
X118331250Y-93662500D03*
%TD*%
%TO.C,D12*%
X115031250Y-74612500D03*
X118331250Y-74612500D03*
%TD*%
%TO.C,D11*%
X115031250Y-55562500D03*
X118331250Y-55562500D03*
%TD*%
%TO.C,D10*%
X117412500Y-134143750D03*
X120712500Y-134143750D03*
%TD*%
%TO.C,D9*%
X117412500Y-115093750D03*
X120712500Y-115093750D03*
%TD*%
%TO.C,D8*%
X117412500Y-96043750D03*
X120712500Y-96043750D03*
%TD*%
%TO.C,D7*%
X117412500Y-76993750D03*
X120712500Y-76993750D03*
%TD*%
%TO.C,D6*%
X117412500Y-57943750D03*
X120712500Y-57943750D03*
%TD*%
%TO.C,D5*%
X119793750Y-136525000D03*
X123093750Y-136525000D03*
%TD*%
%TO.C,D4*%
X119793750Y-117475000D03*
X123093750Y-117475000D03*
%TD*%
%TO.C,D3*%
X119793750Y-98425000D03*
X123093750Y-98425000D03*
%TD*%
%TO.C,D2*%
X119793750Y-79375000D03*
X123093750Y-79375000D03*
%TD*%
%TO.C,D1*%
X119793750Y-60325000D03*
X123093750Y-60325000D03*
%TD*%
M02*
