%TF.GenerationSoftware,KiCad,Pcbnew,(5.1.9)-1*%
%TF.CreationDate,2021-04-12T01:02:27-04:00*%
%TF.ProjectId,Genesis Numpad,47656e65-7369-4732-904e-756d7061642e,rev?*%
%TF.SameCoordinates,Original*%
%TF.FileFunction,Paste,Top*%
%TF.FilePolarity,Positive*%
%FSLAX46Y46*%
G04 Gerber Fmt 4.6, Leading zero omitted, Abs format (unit mm)*
G04 Created by KiCad (PCBNEW (5.1.9)-1) date 2021-04-12 01:02:27*
%MOMM*%
%LPD*%
G01*
G04 APERTURE LIST*
%ADD10R,0.900000X1.200000*%
G04 APERTURE END LIST*
D10*
%TO.C,D20*%
X112650000Y-129381250D03*
X115950000Y-129381250D03*
%TD*%
%TO.C,D19*%
X112650000Y-110331250D03*
X115950000Y-110331250D03*
%TD*%
%TO.C,D18*%
X112650000Y-91281250D03*
X115950000Y-91281250D03*
%TD*%
%TO.C,D17*%
X112650000Y-72231250D03*
X115950000Y-72231250D03*
%TD*%
%TO.C,D16*%
X112650000Y-53181250D03*
X115950000Y-53181250D03*
%TD*%
%TO.C,D15*%
X115031250Y-131762500D03*
X118331250Y-131762500D03*
%TD*%
%TO.C,D14*%
X115031250Y-112712500D03*
X118331250Y-112712500D03*
%TD*%
%TO.C,D13*%
X115031250Y-93662500D03*
X118331250Y-93662500D03*
%TD*%
%TO.C,D12*%
X115031250Y-74612500D03*
X118331250Y-74612500D03*
%TD*%
%TO.C,D11*%
X115031250Y-55562500D03*
X118331250Y-55562500D03*
%TD*%
%TO.C,D10*%
X117412500Y-134143750D03*
X120712500Y-134143750D03*
%TD*%
%TO.C,D9*%
X117412500Y-115093750D03*
X120712500Y-115093750D03*
%TD*%
%TO.C,D8*%
X117412500Y-96043750D03*
X120712500Y-96043750D03*
%TD*%
%TO.C,D7*%
X117412500Y-76993750D03*
X120712500Y-76993750D03*
%TD*%
%TO.C,D6*%
X117412500Y-57943750D03*
X120712500Y-57943750D03*
%TD*%
%TO.C,D5*%
X119793750Y-136525000D03*
X123093750Y-136525000D03*
%TD*%
%TO.C,D4*%
X119793750Y-117475000D03*
X123093750Y-117475000D03*
%TD*%
%TO.C,D3*%
X119793750Y-98425000D03*
X123093750Y-98425000D03*
%TD*%
%TO.C,D2*%
X119793750Y-79375000D03*
X123093750Y-79375000D03*
%TD*%
%TO.C,D1*%
X119793750Y-60325000D03*
X123093750Y-60325000D03*
%TD*%
M02*
