%TF.GenerationSoftware,KiCad,Pcbnew,(5.1.9)-1*%
%TF.CreationDate,2021-04-12T01:02:27-04:00*%
%TF.ProjectId,Genesis Numpad,47656e65-7369-4732-904e-756d7061642e,rev?*%
%TF.SameCoordinates,Original*%
%TF.FileFunction,Copper,L1,Top*%
%TF.FilePolarity,Positive*%
%FSLAX46Y46*%
G04 Gerber Fmt 4.6, Leading zero omitted, Abs format (unit mm)*
G04 Created by KiCad (PCBNEW (5.1.9)-1) date 2021-04-12 01:02:27*
%MOMM*%
%LPD*%
G01*
G04 APERTURE LIST*
%TA.AperFunction,ComponentPad*%
%ADD10O,1.700000X2.700000*%
%TD*%
%TA.AperFunction,ComponentPad*%
%ADD11C,2.250000*%
%TD*%
%TA.AperFunction,SMDPad,CuDef*%
%ADD12R,0.900000X1.200000*%
%TD*%
%TA.AperFunction,ViaPad*%
%ADD13C,0.800000*%
%TD*%
%TA.AperFunction,Conductor*%
%ADD14C,0.381000*%
%TD*%
%TA.AperFunction,Conductor*%
%ADD15C,0.250000*%
%TD*%
G04 APERTURE END LIST*
D10*
%TO.P,USB1,6*%
%TO.N,GND*%
X74137500Y-22225000D03*
X81437500Y-22225000D03*
X81437500Y-26725000D03*
X74137500Y-26725000D03*
%TD*%
D11*
%TO.P,MX20,1*%
%TO.N,COL3*%
X99100000Y-126175000D03*
%TA.AperFunction,ComponentPad*%
G36*
G01*
X97038688Y-128472350D02*
X97038683Y-128472345D01*
G75*
G02*
X96952655Y-126883683I751317J837345D01*
G01*
X98262657Y-125423683D01*
G75*
G02*
X99851319Y-125337655I837345J-751317D01*
G01*
X99851319Y-125337655D01*
G75*
G02*
X99937347Y-126926317I-751317J-837345D01*
G01*
X98627345Y-128386317D01*
G75*
G02*
X97038683Y-128472345I-837345J751317D01*
G01*
G37*
%TD.AperFunction*%
%TO.P,MX20,2*%
%TO.N,Net-(D20-Pad2)*%
X104140000Y-125095000D03*
%TA.AperFunction,ComponentPad*%
G36*
G01*
X104023483Y-126797395D02*
X104022597Y-126797334D01*
G75*
G02*
X102977666Y-125597597I77403J1122334D01*
G01*
X103017666Y-125017597D01*
G75*
G02*
X104217403Y-123972666I1122334J-77403D01*
G01*
X104217403Y-123972666D01*
G75*
G02*
X105262334Y-125172403I-77403J-1122334D01*
G01*
X105222334Y-125752403D01*
G75*
G02*
X104022597Y-126797334I-1122334J77403D01*
G01*
G37*
%TD.AperFunction*%
%TD*%
%TO.P,MX19,1*%
%TO.N,COL3*%
X99100000Y-107125000D03*
%TA.AperFunction,ComponentPad*%
G36*
G01*
X97038688Y-109422350D02*
X97038683Y-109422345D01*
G75*
G02*
X96952655Y-107833683I751317J837345D01*
G01*
X98262657Y-106373683D01*
G75*
G02*
X99851319Y-106287655I837345J-751317D01*
G01*
X99851319Y-106287655D01*
G75*
G02*
X99937347Y-107876317I-751317J-837345D01*
G01*
X98627345Y-109336317D01*
G75*
G02*
X97038683Y-109422345I-837345J751317D01*
G01*
G37*
%TD.AperFunction*%
%TO.P,MX19,2*%
%TO.N,Net-(D19-Pad2)*%
X104140000Y-106045000D03*
%TA.AperFunction,ComponentPad*%
G36*
G01*
X104023483Y-107747395D02*
X104022597Y-107747334D01*
G75*
G02*
X102977666Y-106547597I77403J1122334D01*
G01*
X103017666Y-105967597D01*
G75*
G02*
X104217403Y-104922666I1122334J-77403D01*
G01*
X104217403Y-104922666D01*
G75*
G02*
X105262334Y-106122403I-77403J-1122334D01*
G01*
X105222334Y-106702403D01*
G75*
G02*
X104022597Y-107747334I-1122334J77403D01*
G01*
G37*
%TD.AperFunction*%
%TD*%
%TO.P,MX18,1*%
%TO.N,COL3*%
X99100000Y-88075000D03*
%TA.AperFunction,ComponentPad*%
G36*
G01*
X97038688Y-90372350D02*
X97038683Y-90372345D01*
G75*
G02*
X96952655Y-88783683I751317J837345D01*
G01*
X98262657Y-87323683D01*
G75*
G02*
X99851319Y-87237655I837345J-751317D01*
G01*
X99851319Y-87237655D01*
G75*
G02*
X99937347Y-88826317I-751317J-837345D01*
G01*
X98627345Y-90286317D01*
G75*
G02*
X97038683Y-90372345I-837345J751317D01*
G01*
G37*
%TD.AperFunction*%
%TO.P,MX18,2*%
%TO.N,Net-(D18-Pad2)*%
X104140000Y-86995000D03*
%TA.AperFunction,ComponentPad*%
G36*
G01*
X104023483Y-88697395D02*
X104022597Y-88697334D01*
G75*
G02*
X102977666Y-87497597I77403J1122334D01*
G01*
X103017666Y-86917597D01*
G75*
G02*
X104217403Y-85872666I1122334J-77403D01*
G01*
X104217403Y-85872666D01*
G75*
G02*
X105262334Y-87072403I-77403J-1122334D01*
G01*
X105222334Y-87652403D01*
G75*
G02*
X104022597Y-88697334I-1122334J77403D01*
G01*
G37*
%TD.AperFunction*%
%TD*%
%TO.P,MX17,1*%
%TO.N,COL3*%
X99100000Y-69025000D03*
%TA.AperFunction,ComponentPad*%
G36*
G01*
X97038688Y-71322350D02*
X97038683Y-71322345D01*
G75*
G02*
X96952655Y-69733683I751317J837345D01*
G01*
X98262657Y-68273683D01*
G75*
G02*
X99851319Y-68187655I837345J-751317D01*
G01*
X99851319Y-68187655D01*
G75*
G02*
X99937347Y-69776317I-751317J-837345D01*
G01*
X98627345Y-71236317D01*
G75*
G02*
X97038683Y-71322345I-837345J751317D01*
G01*
G37*
%TD.AperFunction*%
%TO.P,MX17,2*%
%TO.N,Net-(D17-Pad2)*%
X104140000Y-67945000D03*
%TA.AperFunction,ComponentPad*%
G36*
G01*
X104023483Y-69647395D02*
X104022597Y-69647334D01*
G75*
G02*
X102977666Y-68447597I77403J1122334D01*
G01*
X103017666Y-67867597D01*
G75*
G02*
X104217403Y-66822666I1122334J-77403D01*
G01*
X104217403Y-66822666D01*
G75*
G02*
X105262334Y-68022403I-77403J-1122334D01*
G01*
X105222334Y-68602403D01*
G75*
G02*
X104022597Y-69647334I-1122334J77403D01*
G01*
G37*
%TD.AperFunction*%
%TD*%
%TO.P,MX16,1*%
%TO.N,COL3*%
X99100000Y-49975000D03*
%TA.AperFunction,ComponentPad*%
G36*
G01*
X97038688Y-52272350D02*
X97038683Y-52272345D01*
G75*
G02*
X96952655Y-50683683I751317J837345D01*
G01*
X98262657Y-49223683D01*
G75*
G02*
X99851319Y-49137655I837345J-751317D01*
G01*
X99851319Y-49137655D01*
G75*
G02*
X99937347Y-50726317I-751317J-837345D01*
G01*
X98627345Y-52186317D01*
G75*
G02*
X97038683Y-52272345I-837345J751317D01*
G01*
G37*
%TD.AperFunction*%
%TO.P,MX16,2*%
%TO.N,Net-(D16-Pad2)*%
X104140000Y-48895000D03*
%TA.AperFunction,ComponentPad*%
G36*
G01*
X104023483Y-50597395D02*
X104022597Y-50597334D01*
G75*
G02*
X102977666Y-49397597I77403J1122334D01*
G01*
X103017666Y-48817597D01*
G75*
G02*
X104217403Y-47772666I1122334J-77403D01*
G01*
X104217403Y-47772666D01*
G75*
G02*
X105262334Y-48972403I-77403J-1122334D01*
G01*
X105222334Y-49552403D01*
G75*
G02*
X104022597Y-50597334I-1122334J77403D01*
G01*
G37*
%TD.AperFunction*%
%TD*%
%TO.P,MX15,1*%
%TO.N,COL2*%
X80050000Y-126175000D03*
%TA.AperFunction,ComponentPad*%
G36*
G01*
X77988688Y-128472350D02*
X77988683Y-128472345D01*
G75*
G02*
X77902655Y-126883683I751317J837345D01*
G01*
X79212657Y-125423683D01*
G75*
G02*
X80801319Y-125337655I837345J-751317D01*
G01*
X80801319Y-125337655D01*
G75*
G02*
X80887347Y-126926317I-751317J-837345D01*
G01*
X79577345Y-128386317D01*
G75*
G02*
X77988683Y-128472345I-837345J751317D01*
G01*
G37*
%TD.AperFunction*%
%TO.P,MX15,2*%
%TO.N,Net-(D15-Pad2)*%
X85090000Y-125095000D03*
%TA.AperFunction,ComponentPad*%
G36*
G01*
X84973483Y-126797395D02*
X84972597Y-126797334D01*
G75*
G02*
X83927666Y-125597597I77403J1122334D01*
G01*
X83967666Y-125017597D01*
G75*
G02*
X85167403Y-123972666I1122334J-77403D01*
G01*
X85167403Y-123972666D01*
G75*
G02*
X86212334Y-125172403I-77403J-1122334D01*
G01*
X86172334Y-125752403D01*
G75*
G02*
X84972597Y-126797334I-1122334J77403D01*
G01*
G37*
%TD.AperFunction*%
%TD*%
%TO.P,MX14,1*%
%TO.N,COL2*%
X80050000Y-107125000D03*
%TA.AperFunction,ComponentPad*%
G36*
G01*
X77988688Y-109422350D02*
X77988683Y-109422345D01*
G75*
G02*
X77902655Y-107833683I751317J837345D01*
G01*
X79212657Y-106373683D01*
G75*
G02*
X80801319Y-106287655I837345J-751317D01*
G01*
X80801319Y-106287655D01*
G75*
G02*
X80887347Y-107876317I-751317J-837345D01*
G01*
X79577345Y-109336317D01*
G75*
G02*
X77988683Y-109422345I-837345J751317D01*
G01*
G37*
%TD.AperFunction*%
%TO.P,MX14,2*%
%TO.N,Net-(D14-Pad2)*%
X85090000Y-106045000D03*
%TA.AperFunction,ComponentPad*%
G36*
G01*
X84973483Y-107747395D02*
X84972597Y-107747334D01*
G75*
G02*
X83927666Y-106547597I77403J1122334D01*
G01*
X83967666Y-105967597D01*
G75*
G02*
X85167403Y-104922666I1122334J-77403D01*
G01*
X85167403Y-104922666D01*
G75*
G02*
X86212334Y-106122403I-77403J-1122334D01*
G01*
X86172334Y-106702403D01*
G75*
G02*
X84972597Y-107747334I-1122334J77403D01*
G01*
G37*
%TD.AperFunction*%
%TD*%
%TO.P,MX13,1*%
%TO.N,COL2*%
X80050000Y-88075000D03*
%TA.AperFunction,ComponentPad*%
G36*
G01*
X77988688Y-90372350D02*
X77988683Y-90372345D01*
G75*
G02*
X77902655Y-88783683I751317J837345D01*
G01*
X79212657Y-87323683D01*
G75*
G02*
X80801319Y-87237655I837345J-751317D01*
G01*
X80801319Y-87237655D01*
G75*
G02*
X80887347Y-88826317I-751317J-837345D01*
G01*
X79577345Y-90286317D01*
G75*
G02*
X77988683Y-90372345I-837345J751317D01*
G01*
G37*
%TD.AperFunction*%
%TO.P,MX13,2*%
%TO.N,Net-(D13-Pad2)*%
X85090000Y-86995000D03*
%TA.AperFunction,ComponentPad*%
G36*
G01*
X84973483Y-88697395D02*
X84972597Y-88697334D01*
G75*
G02*
X83927666Y-87497597I77403J1122334D01*
G01*
X83967666Y-86917597D01*
G75*
G02*
X85167403Y-85872666I1122334J-77403D01*
G01*
X85167403Y-85872666D01*
G75*
G02*
X86212334Y-87072403I-77403J-1122334D01*
G01*
X86172334Y-87652403D01*
G75*
G02*
X84972597Y-88697334I-1122334J77403D01*
G01*
G37*
%TD.AperFunction*%
%TD*%
%TO.P,MX12,1*%
%TO.N,COL2*%
X80050000Y-69025000D03*
%TA.AperFunction,ComponentPad*%
G36*
G01*
X77988688Y-71322350D02*
X77988683Y-71322345D01*
G75*
G02*
X77902655Y-69733683I751317J837345D01*
G01*
X79212657Y-68273683D01*
G75*
G02*
X80801319Y-68187655I837345J-751317D01*
G01*
X80801319Y-68187655D01*
G75*
G02*
X80887347Y-69776317I-751317J-837345D01*
G01*
X79577345Y-71236317D01*
G75*
G02*
X77988683Y-71322345I-837345J751317D01*
G01*
G37*
%TD.AperFunction*%
%TO.P,MX12,2*%
%TO.N,Net-(D12-Pad2)*%
X85090000Y-67945000D03*
%TA.AperFunction,ComponentPad*%
G36*
G01*
X84973483Y-69647395D02*
X84972597Y-69647334D01*
G75*
G02*
X83927666Y-68447597I77403J1122334D01*
G01*
X83967666Y-67867597D01*
G75*
G02*
X85167403Y-66822666I1122334J-77403D01*
G01*
X85167403Y-66822666D01*
G75*
G02*
X86212334Y-68022403I-77403J-1122334D01*
G01*
X86172334Y-68602403D01*
G75*
G02*
X84972597Y-69647334I-1122334J77403D01*
G01*
G37*
%TD.AperFunction*%
%TD*%
%TO.P,MX11,1*%
%TO.N,COL2*%
X80050000Y-49975000D03*
%TA.AperFunction,ComponentPad*%
G36*
G01*
X77988688Y-52272350D02*
X77988683Y-52272345D01*
G75*
G02*
X77902655Y-50683683I751317J837345D01*
G01*
X79212657Y-49223683D01*
G75*
G02*
X80801319Y-49137655I837345J-751317D01*
G01*
X80801319Y-49137655D01*
G75*
G02*
X80887347Y-50726317I-751317J-837345D01*
G01*
X79577345Y-52186317D01*
G75*
G02*
X77988683Y-52272345I-837345J751317D01*
G01*
G37*
%TD.AperFunction*%
%TO.P,MX11,2*%
%TO.N,Net-(D11-Pad2)*%
X85090000Y-48895000D03*
%TA.AperFunction,ComponentPad*%
G36*
G01*
X84973483Y-50597395D02*
X84972597Y-50597334D01*
G75*
G02*
X83927666Y-49397597I77403J1122334D01*
G01*
X83967666Y-48817597D01*
G75*
G02*
X85167403Y-47772666I1122334J-77403D01*
G01*
X85167403Y-47772666D01*
G75*
G02*
X86212334Y-48972403I-77403J-1122334D01*
G01*
X86172334Y-49552403D01*
G75*
G02*
X84972597Y-50597334I-1122334J77403D01*
G01*
G37*
%TD.AperFunction*%
%TD*%
%TO.P,MX10,1*%
%TO.N,COL1*%
X61000000Y-126175000D03*
%TA.AperFunction,ComponentPad*%
G36*
G01*
X58938688Y-128472350D02*
X58938683Y-128472345D01*
G75*
G02*
X58852655Y-126883683I751317J837345D01*
G01*
X60162657Y-125423683D01*
G75*
G02*
X61751319Y-125337655I837345J-751317D01*
G01*
X61751319Y-125337655D01*
G75*
G02*
X61837347Y-126926317I-751317J-837345D01*
G01*
X60527345Y-128386317D01*
G75*
G02*
X58938683Y-128472345I-837345J751317D01*
G01*
G37*
%TD.AperFunction*%
%TO.P,MX10,2*%
%TO.N,Net-(D10-Pad2)*%
X66040000Y-125095000D03*
%TA.AperFunction,ComponentPad*%
G36*
G01*
X65923483Y-126797395D02*
X65922597Y-126797334D01*
G75*
G02*
X64877666Y-125597597I77403J1122334D01*
G01*
X64917666Y-125017597D01*
G75*
G02*
X66117403Y-123972666I1122334J-77403D01*
G01*
X66117403Y-123972666D01*
G75*
G02*
X67162334Y-125172403I-77403J-1122334D01*
G01*
X67122334Y-125752403D01*
G75*
G02*
X65922597Y-126797334I-1122334J77403D01*
G01*
G37*
%TD.AperFunction*%
%TD*%
%TO.P,MX9,1*%
%TO.N,COL1*%
X61000000Y-107125000D03*
%TA.AperFunction,ComponentPad*%
G36*
G01*
X58938688Y-109422350D02*
X58938683Y-109422345D01*
G75*
G02*
X58852655Y-107833683I751317J837345D01*
G01*
X60162657Y-106373683D01*
G75*
G02*
X61751319Y-106287655I837345J-751317D01*
G01*
X61751319Y-106287655D01*
G75*
G02*
X61837347Y-107876317I-751317J-837345D01*
G01*
X60527345Y-109336317D01*
G75*
G02*
X58938683Y-109422345I-837345J751317D01*
G01*
G37*
%TD.AperFunction*%
%TO.P,MX9,2*%
%TO.N,Net-(D9-Pad2)*%
X66040000Y-106045000D03*
%TA.AperFunction,ComponentPad*%
G36*
G01*
X65923483Y-107747395D02*
X65922597Y-107747334D01*
G75*
G02*
X64877666Y-106547597I77403J1122334D01*
G01*
X64917666Y-105967597D01*
G75*
G02*
X66117403Y-104922666I1122334J-77403D01*
G01*
X66117403Y-104922666D01*
G75*
G02*
X67162334Y-106122403I-77403J-1122334D01*
G01*
X67122334Y-106702403D01*
G75*
G02*
X65922597Y-107747334I-1122334J77403D01*
G01*
G37*
%TD.AperFunction*%
%TD*%
%TO.P,MX8,1*%
%TO.N,COL1*%
X61000000Y-88075000D03*
%TA.AperFunction,ComponentPad*%
G36*
G01*
X58938688Y-90372350D02*
X58938683Y-90372345D01*
G75*
G02*
X58852655Y-88783683I751317J837345D01*
G01*
X60162657Y-87323683D01*
G75*
G02*
X61751319Y-87237655I837345J-751317D01*
G01*
X61751319Y-87237655D01*
G75*
G02*
X61837347Y-88826317I-751317J-837345D01*
G01*
X60527345Y-90286317D01*
G75*
G02*
X58938683Y-90372345I-837345J751317D01*
G01*
G37*
%TD.AperFunction*%
%TO.P,MX8,2*%
%TO.N,Net-(D8-Pad2)*%
X66040000Y-86995000D03*
%TA.AperFunction,ComponentPad*%
G36*
G01*
X65923483Y-88697395D02*
X65922597Y-88697334D01*
G75*
G02*
X64877666Y-87497597I77403J1122334D01*
G01*
X64917666Y-86917597D01*
G75*
G02*
X66117403Y-85872666I1122334J-77403D01*
G01*
X66117403Y-85872666D01*
G75*
G02*
X67162334Y-87072403I-77403J-1122334D01*
G01*
X67122334Y-87652403D01*
G75*
G02*
X65922597Y-88697334I-1122334J77403D01*
G01*
G37*
%TD.AperFunction*%
%TD*%
%TO.P,MX7,1*%
%TO.N,COL1*%
X61000000Y-69025000D03*
%TA.AperFunction,ComponentPad*%
G36*
G01*
X58938688Y-71322350D02*
X58938683Y-71322345D01*
G75*
G02*
X58852655Y-69733683I751317J837345D01*
G01*
X60162657Y-68273683D01*
G75*
G02*
X61751319Y-68187655I837345J-751317D01*
G01*
X61751319Y-68187655D01*
G75*
G02*
X61837347Y-69776317I-751317J-837345D01*
G01*
X60527345Y-71236317D01*
G75*
G02*
X58938683Y-71322345I-837345J751317D01*
G01*
G37*
%TD.AperFunction*%
%TO.P,MX7,2*%
%TO.N,Net-(D7-Pad2)*%
X66040000Y-67945000D03*
%TA.AperFunction,ComponentPad*%
G36*
G01*
X65923483Y-69647395D02*
X65922597Y-69647334D01*
G75*
G02*
X64877666Y-68447597I77403J1122334D01*
G01*
X64917666Y-67867597D01*
G75*
G02*
X66117403Y-66822666I1122334J-77403D01*
G01*
X66117403Y-66822666D01*
G75*
G02*
X67162334Y-68022403I-77403J-1122334D01*
G01*
X67122334Y-68602403D01*
G75*
G02*
X65922597Y-69647334I-1122334J77403D01*
G01*
G37*
%TD.AperFunction*%
%TD*%
%TO.P,MX6,1*%
%TO.N,COL1*%
X61000000Y-49975000D03*
%TA.AperFunction,ComponentPad*%
G36*
G01*
X58938688Y-52272350D02*
X58938683Y-52272345D01*
G75*
G02*
X58852655Y-50683683I751317J837345D01*
G01*
X60162657Y-49223683D01*
G75*
G02*
X61751319Y-49137655I837345J-751317D01*
G01*
X61751319Y-49137655D01*
G75*
G02*
X61837347Y-50726317I-751317J-837345D01*
G01*
X60527345Y-52186317D01*
G75*
G02*
X58938683Y-52272345I-837345J751317D01*
G01*
G37*
%TD.AperFunction*%
%TO.P,MX6,2*%
%TO.N,Net-(D6-Pad2)*%
X66040000Y-48895000D03*
%TA.AperFunction,ComponentPad*%
G36*
G01*
X65923483Y-50597395D02*
X65922597Y-50597334D01*
G75*
G02*
X64877666Y-49397597I77403J1122334D01*
G01*
X64917666Y-48817597D01*
G75*
G02*
X66117403Y-47772666I1122334J-77403D01*
G01*
X66117403Y-47772666D01*
G75*
G02*
X67162334Y-48972403I-77403J-1122334D01*
G01*
X67122334Y-49552403D01*
G75*
G02*
X65922597Y-50597334I-1122334J77403D01*
G01*
G37*
%TD.AperFunction*%
%TD*%
%TO.P,MX5,1*%
%TO.N,COL0*%
X41950000Y-126175000D03*
%TA.AperFunction,ComponentPad*%
G36*
G01*
X39888688Y-128472350D02*
X39888683Y-128472345D01*
G75*
G02*
X39802655Y-126883683I751317J837345D01*
G01*
X41112657Y-125423683D01*
G75*
G02*
X42701319Y-125337655I837345J-751317D01*
G01*
X42701319Y-125337655D01*
G75*
G02*
X42787347Y-126926317I-751317J-837345D01*
G01*
X41477345Y-128386317D01*
G75*
G02*
X39888683Y-128472345I-837345J751317D01*
G01*
G37*
%TD.AperFunction*%
%TO.P,MX5,2*%
%TO.N,Net-(D5-Pad2)*%
X46990000Y-125095000D03*
%TA.AperFunction,ComponentPad*%
G36*
G01*
X46873483Y-126797395D02*
X46872597Y-126797334D01*
G75*
G02*
X45827666Y-125597597I77403J1122334D01*
G01*
X45867666Y-125017597D01*
G75*
G02*
X47067403Y-123972666I1122334J-77403D01*
G01*
X47067403Y-123972666D01*
G75*
G02*
X48112334Y-125172403I-77403J-1122334D01*
G01*
X48072334Y-125752403D01*
G75*
G02*
X46872597Y-126797334I-1122334J77403D01*
G01*
G37*
%TD.AperFunction*%
%TD*%
%TO.P,MX4,1*%
%TO.N,COL0*%
X41950000Y-107125000D03*
%TA.AperFunction,ComponentPad*%
G36*
G01*
X39888688Y-109422350D02*
X39888683Y-109422345D01*
G75*
G02*
X39802655Y-107833683I751317J837345D01*
G01*
X41112657Y-106373683D01*
G75*
G02*
X42701319Y-106287655I837345J-751317D01*
G01*
X42701319Y-106287655D01*
G75*
G02*
X42787347Y-107876317I-751317J-837345D01*
G01*
X41477345Y-109336317D01*
G75*
G02*
X39888683Y-109422345I-837345J751317D01*
G01*
G37*
%TD.AperFunction*%
%TO.P,MX4,2*%
%TO.N,Net-(D4-Pad2)*%
X46990000Y-106045000D03*
%TA.AperFunction,ComponentPad*%
G36*
G01*
X46873483Y-107747395D02*
X46872597Y-107747334D01*
G75*
G02*
X45827666Y-106547597I77403J1122334D01*
G01*
X45867666Y-105967597D01*
G75*
G02*
X47067403Y-104922666I1122334J-77403D01*
G01*
X47067403Y-104922666D01*
G75*
G02*
X48112334Y-106122403I-77403J-1122334D01*
G01*
X48072334Y-106702403D01*
G75*
G02*
X46872597Y-107747334I-1122334J77403D01*
G01*
G37*
%TD.AperFunction*%
%TD*%
%TO.P,MX3,1*%
%TO.N,COL0*%
X41950000Y-88075000D03*
%TA.AperFunction,ComponentPad*%
G36*
G01*
X39888688Y-90372350D02*
X39888683Y-90372345D01*
G75*
G02*
X39802655Y-88783683I751317J837345D01*
G01*
X41112657Y-87323683D01*
G75*
G02*
X42701319Y-87237655I837345J-751317D01*
G01*
X42701319Y-87237655D01*
G75*
G02*
X42787347Y-88826317I-751317J-837345D01*
G01*
X41477345Y-90286317D01*
G75*
G02*
X39888683Y-90372345I-837345J751317D01*
G01*
G37*
%TD.AperFunction*%
%TO.P,MX3,2*%
%TO.N,Net-(D3-Pad2)*%
X46990000Y-86995000D03*
%TA.AperFunction,ComponentPad*%
G36*
G01*
X46873483Y-88697395D02*
X46872597Y-88697334D01*
G75*
G02*
X45827666Y-87497597I77403J1122334D01*
G01*
X45867666Y-86917597D01*
G75*
G02*
X47067403Y-85872666I1122334J-77403D01*
G01*
X47067403Y-85872666D01*
G75*
G02*
X48112334Y-87072403I-77403J-1122334D01*
G01*
X48072334Y-87652403D01*
G75*
G02*
X46872597Y-88697334I-1122334J77403D01*
G01*
G37*
%TD.AperFunction*%
%TD*%
%TO.P,MX2,1*%
%TO.N,COL0*%
X41950000Y-69025000D03*
%TA.AperFunction,ComponentPad*%
G36*
G01*
X39888688Y-71322350D02*
X39888683Y-71322345D01*
G75*
G02*
X39802655Y-69733683I751317J837345D01*
G01*
X41112657Y-68273683D01*
G75*
G02*
X42701319Y-68187655I837345J-751317D01*
G01*
X42701319Y-68187655D01*
G75*
G02*
X42787347Y-69776317I-751317J-837345D01*
G01*
X41477345Y-71236317D01*
G75*
G02*
X39888683Y-71322345I-837345J751317D01*
G01*
G37*
%TD.AperFunction*%
%TO.P,MX2,2*%
%TO.N,Net-(D2-Pad2)*%
X46990000Y-67945000D03*
%TA.AperFunction,ComponentPad*%
G36*
G01*
X46873483Y-69647395D02*
X46872597Y-69647334D01*
G75*
G02*
X45827666Y-68447597I77403J1122334D01*
G01*
X45867666Y-67867597D01*
G75*
G02*
X47067403Y-66822666I1122334J-77403D01*
G01*
X47067403Y-66822666D01*
G75*
G02*
X48112334Y-68022403I-77403J-1122334D01*
G01*
X48072334Y-68602403D01*
G75*
G02*
X46872597Y-69647334I-1122334J77403D01*
G01*
G37*
%TD.AperFunction*%
%TD*%
%TO.P,MX1,1*%
%TO.N,COL0*%
X41950000Y-49975000D03*
%TA.AperFunction,ComponentPad*%
G36*
G01*
X39888688Y-52272350D02*
X39888683Y-52272345D01*
G75*
G02*
X39802655Y-50683683I751317J837345D01*
G01*
X41112657Y-49223683D01*
G75*
G02*
X42701319Y-49137655I837345J-751317D01*
G01*
X42701319Y-49137655D01*
G75*
G02*
X42787347Y-50726317I-751317J-837345D01*
G01*
X41477345Y-52186317D01*
G75*
G02*
X39888683Y-52272345I-837345J751317D01*
G01*
G37*
%TD.AperFunction*%
%TO.P,MX1,2*%
%TO.N,Net-(D1-Pad2)*%
X46990000Y-48895000D03*
%TA.AperFunction,ComponentPad*%
G36*
G01*
X46873483Y-50597395D02*
X46872597Y-50597334D01*
G75*
G02*
X45827666Y-49397597I77403J1122334D01*
G01*
X45867666Y-48817597D01*
G75*
G02*
X47067403Y-47772666I1122334J-77403D01*
G01*
X47067403Y-47772666D01*
G75*
G02*
X48112334Y-48972403I-77403J-1122334D01*
G01*
X48072334Y-49552403D01*
G75*
G02*
X46872597Y-50597334I-1122334J77403D01*
G01*
G37*
%TD.AperFunction*%
%TD*%
D12*
%TO.P,D20,2*%
%TO.N,Net-(D20-Pad2)*%
X112650000Y-129381250D03*
%TO.P,D20,1*%
%TO.N,ROW4*%
X115950000Y-129381250D03*
%TD*%
%TO.P,D19,2*%
%TO.N,Net-(D19-Pad2)*%
X112650000Y-110331250D03*
%TO.P,D19,1*%
%TO.N,ROW3*%
X115950000Y-110331250D03*
%TD*%
%TO.P,D18,2*%
%TO.N,Net-(D18-Pad2)*%
X112650000Y-91281250D03*
%TO.P,D18,1*%
%TO.N,ROW2*%
X115950000Y-91281250D03*
%TD*%
%TO.P,D17,2*%
%TO.N,Net-(D17-Pad2)*%
X112650000Y-72231250D03*
%TO.P,D17,1*%
%TO.N,ROW1*%
X115950000Y-72231250D03*
%TD*%
%TO.P,D16,2*%
%TO.N,Net-(D16-Pad2)*%
X112650000Y-53181250D03*
%TO.P,D16,1*%
%TO.N,ROW0*%
X115950000Y-53181250D03*
%TD*%
%TO.P,D15,2*%
%TO.N,Net-(D15-Pad2)*%
X115031250Y-131762500D03*
%TO.P,D15,1*%
%TO.N,ROW4*%
X118331250Y-131762500D03*
%TD*%
%TO.P,D14,2*%
%TO.N,Net-(D14-Pad2)*%
X115031250Y-112712500D03*
%TO.P,D14,1*%
%TO.N,ROW3*%
X118331250Y-112712500D03*
%TD*%
%TO.P,D13,2*%
%TO.N,Net-(D13-Pad2)*%
X115031250Y-93662500D03*
%TO.P,D13,1*%
%TO.N,ROW2*%
X118331250Y-93662500D03*
%TD*%
%TO.P,D12,2*%
%TO.N,Net-(D12-Pad2)*%
X115031250Y-74612500D03*
%TO.P,D12,1*%
%TO.N,ROW1*%
X118331250Y-74612500D03*
%TD*%
%TO.P,D11,2*%
%TO.N,Net-(D11-Pad2)*%
X115031250Y-55562500D03*
%TO.P,D11,1*%
%TO.N,ROW0*%
X118331250Y-55562500D03*
%TD*%
%TO.P,D10,2*%
%TO.N,Net-(D10-Pad2)*%
X117412500Y-134143750D03*
%TO.P,D10,1*%
%TO.N,ROW4*%
X120712500Y-134143750D03*
%TD*%
%TO.P,D9,2*%
%TO.N,Net-(D9-Pad2)*%
X117412500Y-115093750D03*
%TO.P,D9,1*%
%TO.N,ROW3*%
X120712500Y-115093750D03*
%TD*%
%TO.P,D8,2*%
%TO.N,Net-(D8-Pad2)*%
X117412500Y-96043750D03*
%TO.P,D8,1*%
%TO.N,ROW2*%
X120712500Y-96043750D03*
%TD*%
%TO.P,D7,2*%
%TO.N,Net-(D7-Pad2)*%
X117412500Y-76993750D03*
%TO.P,D7,1*%
%TO.N,ROW1*%
X120712500Y-76993750D03*
%TD*%
%TO.P,D6,2*%
%TO.N,Net-(D6-Pad2)*%
X117412500Y-57943750D03*
%TO.P,D6,1*%
%TO.N,ROW0*%
X120712500Y-57943750D03*
%TD*%
%TO.P,D5,2*%
%TO.N,Net-(D5-Pad2)*%
X119793750Y-136525000D03*
%TO.P,D5,1*%
%TO.N,ROW4*%
X123093750Y-136525000D03*
%TD*%
%TO.P,D4,2*%
%TO.N,Net-(D4-Pad2)*%
X119793750Y-117475000D03*
%TO.P,D4,1*%
%TO.N,ROW3*%
X123093750Y-117475000D03*
%TD*%
%TO.P,D3,2*%
%TO.N,Net-(D3-Pad2)*%
X119793750Y-98425000D03*
%TO.P,D3,1*%
%TO.N,ROW2*%
X123093750Y-98425000D03*
%TD*%
%TO.P,D2,2*%
%TO.N,Net-(D2-Pad2)*%
X119793750Y-79375000D03*
%TO.P,D2,1*%
%TO.N,ROW1*%
X123093750Y-79375000D03*
%TD*%
%TO.P,D1,2*%
%TO.N,Net-(D1-Pad2)*%
X119793750Y-60325000D03*
%TO.P,D1,1*%
%TO.N,ROW0*%
X123093750Y-60325000D03*
%TD*%
D13*
%TO.N,GND*%
X124618750Y-35718750D03*
X124618750Y-32543750D03*
X120650000Y-32543750D03*
X120904000Y-37211000D03*
%TO.N,+5V*%
X114046000Y-41783000D03*
X114935000Y-37846000D03*
%TO.N,ROW0*%
X128252784Y-42181216D03*
%TO.N,ROW1*%
X128959892Y-41474108D03*
%TO.N,ROW2*%
X129667000Y-40767000D03*
%TO.N,ROW3*%
X130429000Y-40005000D03*
%TO.N,ROW4*%
X131136108Y-39297892D03*
%TD*%
D14*
%TO.N,GND*%
X124618750Y-35718750D02*
X124618750Y-32543750D01*
X124618750Y-32543750D02*
X120650000Y-32543750D01*
X120650000Y-36957000D02*
X120904000Y-37211000D01*
X120650000Y-32543750D02*
X120650000Y-36957000D01*
%TO.N,+5V*%
X114046000Y-38735000D02*
X114935000Y-37846000D01*
X114046000Y-41783000D02*
X114046000Y-38735000D01*
D15*
%TO.N,Net-(D1-Pad2)*%
X46950000Y-49475000D02*
X46950000Y-50125000D01*
X46950000Y-50125000D02*
X47625000Y-50800000D01*
X47625000Y-50800000D02*
X47625000Y-54768750D01*
X47625000Y-54768750D02*
X53181250Y-60325000D01*
X53181250Y-60325000D02*
X119793750Y-60325000D01*
%TO.N,ROW0*%
X115950000Y-53181250D02*
X118331250Y-55562500D01*
X118331250Y-55562500D02*
X120712500Y-57943750D01*
X120712500Y-57943750D02*
X123093750Y-60325000D01*
X124714000Y-45720000D02*
X128252784Y-42181216D01*
X124714000Y-58674000D02*
X124714000Y-45720000D01*
X123093750Y-60294250D02*
X124714000Y-58674000D01*
X123093750Y-60325000D02*
X123093750Y-60294250D01*
%TO.N,Net-(D2-Pad2)*%
X46950000Y-68525000D02*
X46950000Y-69175000D01*
X46950000Y-69175000D02*
X47625000Y-69850000D01*
X47625000Y-69850000D02*
X47625000Y-73818750D01*
X47625000Y-73818750D02*
X53181250Y-79375000D01*
X53181250Y-79375000D02*
X119793750Y-79375000D01*
%TO.N,ROW1*%
X115950000Y-72231250D02*
X118331250Y-74612500D01*
X118331250Y-74612500D02*
X120712500Y-76993750D01*
X120712500Y-76993750D02*
X123093750Y-79375000D01*
X125164010Y-45906400D02*
X125164010Y-77304740D01*
X125164010Y-77304740D02*
X123093750Y-79375000D01*
X128164193Y-42906217D02*
X125164010Y-45906400D01*
X128600785Y-42906217D02*
X128164193Y-42906217D01*
X129032000Y-42475002D02*
X128600785Y-42906217D01*
X129032000Y-41546216D02*
X129032000Y-42475002D01*
X128959892Y-41474108D02*
X129032000Y-41546216D01*
%TO.N,Net-(D3-Pad2)*%
X47625000Y-92868750D02*
X53181250Y-98425000D01*
X47625000Y-88900000D02*
X47625000Y-92868750D01*
X53181250Y-98425000D02*
X119793750Y-98425000D01*
X46950000Y-88225000D02*
X47625000Y-88900000D01*
X46950000Y-87575000D02*
X46950000Y-88225000D01*
%TO.N,ROW2*%
X129684893Y-40784893D02*
X129667000Y-40767000D01*
X129684893Y-42458519D02*
X129684893Y-40784893D01*
X128787186Y-43356226D02*
X129684893Y-42458519D01*
X128350593Y-43356227D02*
X128787186Y-43356226D01*
X125643720Y-46063100D02*
X128350593Y-43356227D01*
X125643720Y-95875030D02*
X125643720Y-46063100D01*
X123093750Y-98425000D02*
X125643720Y-95875030D01*
X115950000Y-91281250D02*
X118331250Y-93662500D01*
X118331250Y-93662500D02*
X120712500Y-96043750D01*
X120712500Y-96043750D02*
X123093750Y-98425000D01*
%TO.N,Net-(D4-Pad2)*%
X46950000Y-106625000D02*
X46950000Y-107275000D01*
X46950000Y-107275000D02*
X47625000Y-107950000D01*
X47625000Y-107950000D02*
X47625000Y-111918750D01*
X47625000Y-111918750D02*
X53181250Y-117475000D01*
X53181250Y-117475000D02*
X119793750Y-117475000D01*
%TO.N,ROW3*%
X128973587Y-43806235D02*
X130429000Y-42350822D01*
X128536995Y-43806235D02*
X128973587Y-43806235D01*
X126093730Y-46249500D02*
X128536995Y-43806235D01*
X126093730Y-114475020D02*
X126093730Y-46249500D01*
X130429000Y-42350822D02*
X130429000Y-40005000D01*
X123093750Y-117475000D02*
X126093730Y-114475020D01*
X115950000Y-110331250D02*
X118331250Y-112712500D01*
X118331250Y-112712500D02*
X120712500Y-115093750D01*
X120712500Y-115093750D02*
X123093750Y-117475000D01*
%TO.N,Net-(D5-Pad2)*%
X46950000Y-125675000D02*
X46950000Y-126325000D01*
X46950000Y-126325000D02*
X47625000Y-127000000D01*
X47625000Y-127000000D02*
X47625000Y-130968750D01*
X47625000Y-130968750D02*
X53181250Y-136525000D01*
X53181250Y-136525000D02*
X119793750Y-136525000D01*
%TO.N,ROW4*%
X131154001Y-39315785D02*
X131136108Y-39297892D01*
X131154001Y-42262231D02*
X131154001Y-39315785D01*
X129159988Y-44256244D02*
X131154001Y-42262231D01*
X128723395Y-44256245D02*
X129159988Y-44256244D01*
X126543740Y-46435900D02*
X128723395Y-44256245D01*
X126543740Y-133075010D02*
X126543740Y-46435900D01*
X123093750Y-136525000D02*
X126543740Y-133075010D01*
X115950000Y-129381250D02*
X118331250Y-131762500D01*
X118331250Y-131762500D02*
X120712500Y-134143750D01*
X120712500Y-134143750D02*
X123093750Y-136525000D01*
%TO.N,Net-(D6-Pad2)*%
X115481260Y-59874990D02*
X117412500Y-57943750D01*
X71781240Y-59874990D02*
X115481260Y-59874990D01*
X66675000Y-54768750D02*
X71781240Y-59874990D01*
X66675000Y-50800000D02*
X66675000Y-54768750D01*
X66000000Y-50125000D02*
X66675000Y-50800000D01*
X66000000Y-49475000D02*
X66000000Y-50125000D01*
%TO.N,Net-(D7-Pad2)*%
X71781240Y-78924990D02*
X115481260Y-78924990D01*
X115481260Y-78924990D02*
X117412500Y-76993750D01*
X66675000Y-73818750D02*
X71781240Y-78924990D01*
X66675000Y-69850000D02*
X66675000Y-73818750D01*
X66000000Y-69175000D02*
X66675000Y-69850000D01*
X66000000Y-68525000D02*
X66000000Y-69175000D01*
%TO.N,Net-(D8-Pad2)*%
X115481260Y-97974990D02*
X117412500Y-96043750D01*
X71781240Y-97974990D02*
X115481260Y-97974990D01*
X66675000Y-88900000D02*
X66675000Y-92868750D01*
X66675000Y-92868750D02*
X71781240Y-97974990D01*
X66000000Y-88225000D02*
X66675000Y-88900000D01*
X66000000Y-87575000D02*
X66000000Y-88225000D01*
%TO.N,Net-(D9-Pad2)*%
X115481260Y-117024990D02*
X117412500Y-115093750D01*
X66675000Y-111918750D02*
X71781240Y-117024990D01*
X66675000Y-107950000D02*
X66675000Y-111918750D01*
X66000000Y-107275000D02*
X66675000Y-107950000D01*
X71781240Y-117024990D02*
X115481260Y-117024990D01*
X66000000Y-106625000D02*
X66000000Y-107275000D01*
%TO.N,Net-(D10-Pad2)*%
X115481260Y-136074990D02*
X117412500Y-134143750D01*
X71781240Y-136074990D02*
X115481260Y-136074990D01*
X66675000Y-130968750D02*
X71781240Y-136074990D01*
X66675000Y-127000000D02*
X66675000Y-130968750D01*
X66000000Y-126325000D02*
X66675000Y-127000000D01*
X66000000Y-125675000D02*
X66000000Y-126325000D01*
%TO.N,Net-(D11-Pad2)*%
X85050000Y-49475000D02*
X85050000Y-50125000D01*
X85050000Y-50125000D02*
X85725000Y-50800000D01*
X85725000Y-50800000D02*
X85725000Y-54768750D01*
X85725000Y-54768750D02*
X90381230Y-59424980D01*
X111168770Y-59424980D02*
X115031250Y-55562500D01*
X90381230Y-59424980D02*
X111168770Y-59424980D01*
%TO.N,Net-(D12-Pad2)*%
X90381230Y-78474980D02*
X111168770Y-78474980D01*
X85725000Y-73818750D02*
X90381230Y-78474980D01*
X85725000Y-69850000D02*
X85725000Y-73818750D01*
X85050000Y-69175000D02*
X85725000Y-69850000D01*
X111168770Y-78474980D02*
X115031250Y-74612500D01*
X85050000Y-68525000D02*
X85050000Y-69175000D01*
%TO.N,Net-(D13-Pad2)*%
X111168770Y-97524980D02*
X115031250Y-93662500D01*
X90381230Y-97524980D02*
X111168770Y-97524980D01*
X85725000Y-92868750D02*
X90381230Y-97524980D01*
X85725000Y-88900000D02*
X85725000Y-92868750D01*
X85050000Y-88225000D02*
X85725000Y-88900000D01*
X85050000Y-87575000D02*
X85050000Y-88225000D01*
%TO.N,Net-(D14-Pad2)*%
X90381230Y-116574980D02*
X111168770Y-116574980D01*
X111168770Y-116574980D02*
X115031250Y-112712500D01*
X85725000Y-107950000D02*
X85725000Y-111918750D01*
X85725000Y-111918750D02*
X90381230Y-116574980D01*
X85050000Y-107275000D02*
X85725000Y-107950000D01*
X85050000Y-106625000D02*
X85050000Y-107275000D01*
%TO.N,Net-(D15-Pad2)*%
X90381230Y-135624980D02*
X111168770Y-135624980D01*
X111168770Y-135624980D02*
X115031250Y-131762500D01*
X85725000Y-130968750D02*
X90381230Y-135624980D01*
X85725000Y-127000000D02*
X85725000Y-130968750D01*
X85050000Y-126325000D02*
X85725000Y-127000000D01*
X85050000Y-125675000D02*
X85050000Y-126325000D01*
%TO.N,Net-(D16-Pad2)*%
X112650000Y-57307340D02*
X112650000Y-53181250D01*
X110982370Y-58974970D02*
X112650000Y-57307340D01*
X108981220Y-58974970D02*
X110982370Y-58974970D01*
X104775000Y-50800000D02*
X104775000Y-54768750D01*
X104775000Y-54768750D02*
X108981220Y-58974970D01*
X104100000Y-50125000D02*
X104775000Y-50800000D01*
X104100000Y-49475000D02*
X104100000Y-50125000D01*
%TO.N,Net-(D17-Pad2)*%
X112650000Y-76357340D02*
X112650000Y-72231250D01*
X110982370Y-78024970D02*
X112650000Y-76357340D01*
X108981220Y-78024970D02*
X110982370Y-78024970D01*
X104775000Y-73818750D02*
X108981220Y-78024970D01*
X104775000Y-69850000D02*
X104775000Y-73818750D01*
X104100000Y-69175000D02*
X104775000Y-69850000D01*
X104100000Y-68525000D02*
X104100000Y-69175000D01*
%TO.N,Net-(D18-Pad2)*%
X112650000Y-95407340D02*
X112650000Y-91281250D01*
X110982370Y-97074970D02*
X112650000Y-95407340D01*
X108981220Y-97074970D02*
X110982370Y-97074970D01*
X104775000Y-92868750D02*
X108981220Y-97074970D01*
X104775000Y-88900000D02*
X104775000Y-92868750D01*
X104100000Y-88225000D02*
X104775000Y-88900000D01*
X104100000Y-87575000D02*
X104100000Y-88225000D01*
%TO.N,Net-(D19-Pad2)*%
X110982370Y-116124970D02*
X112650000Y-114457340D01*
X108981220Y-116124970D02*
X110982370Y-116124970D01*
X104775000Y-111918750D02*
X108981220Y-116124970D01*
X112650000Y-114457340D02*
X112650000Y-110331250D01*
X104775000Y-107950000D02*
X104775000Y-111918750D01*
X104100000Y-107275000D02*
X104775000Y-107950000D01*
X104100000Y-106625000D02*
X104100000Y-107275000D01*
%TO.N,Net-(D20-Pad2)*%
X110982370Y-135174970D02*
X112650000Y-133507340D01*
X108981220Y-135174970D02*
X110982370Y-135174970D01*
X104775000Y-130968750D02*
X108981220Y-135174970D01*
X104775000Y-127000000D02*
X104775000Y-130968750D01*
X104100000Y-126325000D02*
X104775000Y-127000000D01*
X112650000Y-133507340D02*
X112650000Y-129381250D01*
X104100000Y-125675000D02*
X104100000Y-126325000D01*
%TD*%
M02*
